<svg xmlns="http://www.w3.org/2000/svg" width="805" height="600"><rect width="805" height="600" x="0" y="0" fill="#FFFFFF" id="backgorund"/><g id="viz"><clipPath id="serieClipPath"><rect x="-50" y="-30" width="805" height="600"/></clipPath><g transform="translate(0,0)"><g transform="translate(50,30)" clip-path="url(#serieClipPath)"><g id="axis"><g transform="translate(0,540)" fill="none" font-size="10" font-family="sans-serif" text-anchor="middle"><path class="domain" stroke="currentColor" d="M0,6V0H725V6"/><g class="tick" opacity="1" transform="translate(0,0)"><line stroke="currentColor" y2="6"/><text fill="currentColor" y="9" dy="0.71em">Fri 07</text></g><g class="tick" opacity="1" transform="translate(43.93939393939394,0)"><line stroke="currentColor" y2="6"/><text fill="currentColor" y="9" dy="0.71em">Oct 09</text></g><g class="tick" opacity="1" transform="translate(87.87878787878788,0)"><line stroke="currentColor" y2="6"/><text fill="currentColor" y="9" dy="0.71em">Tue 11</text></g><g class="tick" opacity="1" transform="translate(131.8181818181818,0)"><line stroke="currentColor" y2="6"/><text fill="currentColor" y="9" dy="0.71em">Thu 13</text></g><g class="tick" opacity="1" transform="translate(175.75757575757575,0)"><line stroke="currentColor" y2="6"/><text fill="currentColor" y="9" dy="0.71em">Sat 15</text></g><g class="tick" opacity="1" transform="translate(219.69696969696972,0)"><line stroke="currentColor" y2="6"/><text fill="currentColor" y="9" dy="0.71em">Mon 17</text></g><g class="tick" opacity="1" transform="translate(263.6363636363636,0)"><line stroke="currentColor" y2="6"/><text fill="currentColor" y="9" dy="0.71em">Wed 19</text></g><g class="tick" opacity="1" transform="translate(307.57575757575756,0)"><line stroke="currentColor" y2="6"/><text fill="currentColor" y="9" dy="0.71em">Fri 21</text></g><g class="tick" opacity="1" transform="translate(351.5151515151515,0)"><line stroke="currentColor" y2="6"/><text fill="currentColor" y="9" dy="0.71em">Oct 23</text></g><g class="tick" opacity="1" transform="translate(395.45454545454544,0)"><line stroke="currentColor" y2="6"/><text fill="currentColor" y="9" dy="0.71em">Tue 25</text></g><g class="tick" opacity="1" transform="translate(439.39393939393943,0)"><line stroke="currentColor" y2="6"/><text fill="currentColor" y="9" dy="0.71em">Thu 27</text></g><g class="tick" opacity="1" transform="translate(483.3333333333333,0)"><line stroke="currentColor" y2="6"/><text fill="currentColor" y="9" dy="0.71em">Sat 29</text></g><g class="tick" opacity="1" transform="translate(527.2727272727273,0)"><line stroke="currentColor" y2="6"/><text fill="currentColor" y="9" dy="0.71em">Mon 31</text></g><g class="tick" opacity="1" transform="translate(549.2424242424242,0)"><line stroke="currentColor" y2="6"/><text fill="currentColor" y="9" dy="0.71em">November</text></g><g class="tick" opacity="1" transform="translate(593.1818181818182,0)"><line stroke="currentColor" y2="6"/><text fill="currentColor" y="9" dy="0.71em">Thu 03</text></g><g class="tick" opacity="1" transform="translate(637.1212121212121,0)"><line stroke="currentColor" y2="6"/><text fill="currentColor" y="9" dy="0.71em">Sat 05</text></g><g class="tick" opacity="1" transform="translate(681.0606060606061,0)"><line stroke="currentColor" y2="6"/><text fill="currentColor" y="9" dy="0.71em">Mon 07</text></g><g class="tick" opacity="1" transform="translate(725,0)"><line stroke="currentColor" y2="6"/><text fill="currentColor" y="9" dy="0.71em">Wed 09</text></g><text x="725" dy="-5" text-anchor="end" style="font-family: Arial, sans-serif; font-size: 12px; fill: rgb(123, 123, 123); font-weight: bold;">日期</text></g><g transform="translate(0,0)" fill="none" font-size="10" font-family="sans-serif" text-anchor="end"><path class="domain" stroke="currentColor" d="M0,540V0"/><g class="tick" opacity="1" transform="translate(0,540)"><line stroke="currentColor" x2="-6"/><text fill="currentColor" x="-9" dy="0.32em">1,680</text></g><g class="tick" opacity="1" transform="translate(0,498.4615384615385)"><line stroke="currentColor" x2="-6"/><text fill="currentColor" x="-9" dy="0.32em">1,700</text></g><g class="tick" opacity="1" transform="translate(0,456.9230769230769)"><line stroke="currentColor" x2="-6"/><text fill="currentColor" x="-9" dy="0.32em">1,720</text></g><g class="tick" opacity="1" transform="translate(0,415.38461538461536)"><line stroke="currentColor" x2="-6"/><text fill="currentColor" x="-9" dy="0.32em">1,740</text></g><g class="tick" opacity="1" transform="translate(0,373.8461538461538)"><line stroke="currentColor" x2="-6"/><text fill="currentColor" x="-9" dy="0.32em">1,760</text></g><g class="tick" opacity="1" transform="translate(0,332.3076923076923)"><line stroke="currentColor" x2="-6"/><text fill="currentColor" x="-9" dy="0.32em">1,780</text></g><g class="tick" opacity="1" transform="translate(0,290.7692307692308)"><line stroke="currentColor" x2="-6"/><text fill="currentColor" x="-9" dy="0.32em">1,800</text></g><g class="tick" opacity="1" transform="translate(0,249.23076923076925)"><line stroke="currentColor" x2="-6"/><text fill="currentColor" x="-9" dy="0.32em">1,820</text></g><g class="tick" opacity="1" transform="translate(0,207.69230769230768)"><line stroke="currentColor" x2="-6"/><text fill="currentColor" x="-9" dy="0.32em">1,840</text></g><g class="tick" opacity="1" transform="translate(0,166.15384615384616)"><line stroke="currentColor" x2="-6"/><text fill="currentColor" x="-9" dy="0.32em">1,860</text></g><g class="tick" opacity="1" transform="translate(0,124.6153846153846)"><line stroke="currentColor" x2="-6"/><text fill="currentColor" x="-9" dy="0.32em">1,880</text></g><g class="tick" opacity="1" transform="translate(0,83.07692307692308)"><line stroke="currentColor" x2="-6"/><text fill="currentColor" x="-9" dy="0.32em">1,900</text></g><g class="tick" opacity="1" transform="translate(0,41.53846153846151)"><line stroke="currentColor" x2="-6"/><text fill="currentColor" x="-9" dy="0.32em">1,920</text></g><g class="tick" opacity="1" transform="translate(0,0)"><line stroke="currentColor" x2="-6"/><text fill="currentColor" x="-9" dy="0.32em">1,940</text></g><text x="4" text-anchor="start" dominant-baseline="hanging" style="font-family: Arial, sans-serif; font-size: 12px; fill: rgb(123, 123, 123); font-weight: bold;">收盤</text></g></g><g id="viz"><g><path d="M0,197.30769230769232C43.93939393939394,197.30769230769232,43.93939393939394,508.8461538461538,87.87878787878788,508.8461538461538C98.86363636363637,508.8461538461538,98.86363636363637,394.61538461538464,109.84848484848486,394.61538461538464C120.83333333333334,394.61538461538464,120.83333333333334,405,131.8181818181818,405C142.8030303030303,405,142.8030303030303,290.7692307692308,153.78787878787878,290.7692307692308C186.74242424242425,290.7692307692308,186.74242424242425,290.7692307692308,219.69696969696972,290.7692307692308C230.6818181818182,290.7692307692308,230.6818181818182,363.4615384615385,241.66666666666666,363.4615384615385C252.65151515151513,363.4615384615385,252.65151515151513,332.3076923076923,263.6363636363636,332.3076923076923C274.6212121212121,332.3076923076923,274.6212121212121,280.38461538461536,285.60606060606057,280.38461538461536C296.59090909090907,280.38461538461536,296.59090909090907,446.5384615384615,307.57575757575756,446.5384615384615C340.530303030303,446.5384615384615,340.530303030303,436.1538461538462,373.4848484848485,436.1538461538462C384.469696969697,436.1538461538462,384.469696969697,384.2307692307692,395.45454545454544,384.2307692307692C406.43939393939394,384.2307692307692,406.43939393939394,270,417.42424242424244,270C428.40909090909093,270,428.40909090909093,249.23076923076925,439.39393939393943,249.23076923076925C450.3787878787879,249.23076923076925,450.3787878787879,270,461.3636363636364,270C494.3181818181818,270,494.3181818181818,186.9230769230769,527.2727272727273,186.9230769230769C538.2575757575758,186.9230769230769,538.2575757575758,197.30769230769232,549.2424242424242,197.30769230769232C560.2272727272727,197.30769230769232,560.2272727272727,124.6153846153846,571.2121212121211,124.6153846153846C582.1969696969697,124.6153846153846,582.1969696969697,93.4615384615385,593.1818181818182,93.4615384615385C604.1666666666667,93.4615384615385,604.1666666666667,72.69230769230768,615.1515151515151,72.69230769230768C648.1060606060606,72.69230769230768,648.1060606060606,31.153846153846164,681.0606060606061,31.153846153846164C692.0454545454545,31.153846153846164,692.0454545454545,20.769230769230756,703.030303030303,20.769230769230756" stroke="#1f77b4" fill="none"/><text font-family="sans-serif" font-size="10" class="labels" x="703.030303030303" y="20.769230769230756" dx="0" dy="-4" text-anchor="middle"/></g></g></g><text y="4" x="4" style="font-family: Arial, sans-serif; font-size: 12px; fill: black; font-weight: bold; dominant-baseline: hanging;"/></g><g id="grid"><rect x="0" y="0" width="805" height="600" fill="none" stroke="#ccc"/></g></g></svg>